<svg width="18" height="12" viewBox="0 0 18 12" fill="none" xmlns="http://www.w3.org/2000/svg">
<path fill-rule="evenodd" clip-rule="evenodd" d="M10.3255 11.0749C9.97389 11.4261 9.49733 11.6233 9.00046 11.6233C8.50358 11.6233 8.02702 11.4261 7.67546 11.0749L0.602956 4.00494C0.428872 3.83077 0.290799 3.62402 0.196616 3.3965C0.102435 3.16897 0.0539883 2.92512 0.0540474 2.67887C0.0541047 2.43262 0.102666 2.1888 0.196956 1.96131C0.291243 1.73383 0.429416 1.52715 0.603581 1.35306C0.777745 1.17898 0.984496 1.04091 1.21202 0.946724C1.43955 0.852542 1.6834 0.804097 1.92965 0.804155C2.1759 0.804213 2.41972 0.852774 2.64721 0.947063C2.87469 1.04135 3.08137 1.17952 3.25546 1.35369L9.00046 7.09744L14.7455 1.35244C14.9183 1.17328 15.1252 1.03034 15.3539 0.931968C15.5826 0.833594 15.8286 0.781757 16.0776 0.779478C16.3265 0.777198 16.5734 0.824522 16.8039 0.91869C17.0344 1.01286 17.2438 1.15198 17.4199 1.32795C17.5961 1.50391 17.7354 1.71319 17.8298 1.94358C17.9242 2.17396 17.9717 2.42084 17.9697 2.6698C17.9676 2.91876 17.916 3.16482 17.8179 3.39363C17.7197 3.62243 17.577 3.82939 17.398 4.00244L10.3255 11.0749Z" fill="#FFC600"/>
</svg>
